<?xml version="1.0" encoding="utf-8"?>
<!-- Generator: Adobe Illustrator 25.2.3, SVG Export Plug-In . SVG Version: 6.00 Build 0)  -->
<svg version="1.1" id="Layer_1" xmlns="http://www.w3.org/2000/svg" xmlns:xlink="http://www.w3.org/1999/xlink" x="0px" y="0px"
	 width="512px" height="512px" viewBox="0 0 512 512" style="enable-background:new 0 0 512 512;" xml:space="preserve">
<style type="text/css">
	.st0{fill:#7020BC;}
</style>
<path class="st0" d="M496,3v167.1l-16-8V3h-16v160l-8,6l-8-6V3h-16v159.1l-16,8V3h-16v182.3l56,88.7l56-88.7V3H496z M456,244
	l-15.8-25h31.6L456,244z M481.9,203h-51.8l-10.6-16.8l19.7-9.8L456,189l16.8-12.6l19.7,9.8L481.9,203z"/>
<path class="st0" d="M225.8,179l-28,112h116.5l-28-112H225.8z M218.2,275l20-80h35.5l20,80H218.2z"/>
<path class="st0" d="M312,105.7V51h32V35h-32V3h-16v32h-80V3h-16v32h-32v16h32v54.7L176.2,179H64v-32H48v32H0v16h48v80H0v16h48v32
	h16v-32h75.9L88,451H48v16h34.8l-12.2,37.5l15.2,4.9L99.7,467h49.7l-10.8,37.8l15.4,4.4L166,467h42v-16h-37.4l27.4-96H314l27.4,96
	H304v16h42l12.1,42.2l15.4-4.4L362.6,467h49.7l13.8,42.5l15.2-4.9L429.2,467H464v-16h-40L312,105.7z M216,51h80v48h-80V51z M64,275
	v-80h107l-25.9,80H64z M154,451h-49.1l13-40h47.6L154,451z M342,395l-16-56H186l-16,56h-47l90.8-280h84.4L389,395H342z M358,451
	l-11.4-40h47.6l13,40H358z"/>
</svg>
