<?xml version="1.0" encoding="utf-8"?>
<!-- Generator: Adobe Illustrator 25.2.3, SVG Export Plug-In . SVG Version: 6.00 Build 0)  -->
<svg version="1.1" id="Layer_1" xmlns="http://www.w3.org/2000/svg" xmlns:xlink="http://www.w3.org/1999/xlink" x="0px" y="0px"
	 width="512px" height="512px" viewBox="0 0 512 512" style="enable-background:new 0 0 512 512;" xml:space="preserve">
<style type="text/css">
	.st0{fill:#BC8F00;}
</style>
<path class="st0" d="M433.5,90.2c0,0-0.1-0.1-0.1-0.1c-0.1-0.1-0.1-0.1-0.2-0.2l-3.3-3.6l-65.5-71.5c-7.3-8-17-13-27.5-14.3
	c0,0,0,0,0,0c-0.1,0-0.3,0-0.4-0.1c-1.8-0.2-3.6-0.3-5.4-0.3H149.4c-20.4,0-37,16.6-37,36.9v18H99.9C81.7,54.9,67,69.7,67,87.8v374
	c0,27.7,22.5,50.2,50.2,50.2h229.6c18.1,0,32.9-14.7,32.9-32.9v-15.7h28.5c20.4,0,37-16.6,37-36.9v-306
	C445.1,109.3,441,98.5,433.5,90.2z M417.9,102.7h-68.2c-4,0-7.2-3.2-7.2-7.2V22.8c2.6,1.4,5,3.2,7.1,5.4l63.5,69.3L417.9,102.7z
	 M408.2,443.5H149.4c-9.3,0-17-7.6-17-16.9V380c0-5.5-4.5-10-10-10c-5.5,0-10,4.5-10,10v46.5c0,20.4,16.6,36.9,37,36.9h210.2v15.7
	c0,7.1-5.8,12.9-12.9,12.9H117.2c-16.7,0-30.2-13.6-30.2-30.2v-374c0-7.1,5.8-12.9,12.9-12.9h12.6V300c0,5.5,4.5,10,10,10
	c5.5,0,10-4.5,10-10V36.9c0-9.3,7.6-16.9,17-16.9h173.1v75.6c0,15,12.2,27.2,27.2,27.2h75.4v303.8
	C425.1,435.9,417.5,443.5,408.2,443.5z"/>
<path class="st0" d="M186.1,142.5H293c5.5,0,10-4.5,10-10s-4.5-10-10-10H186.1c-5.5,0-10,4.5-10,10S180.5,142.5,186.1,142.5z"/>
<path class="st0" d="M342.8,205.2H186.1c-5.5,0-10,4.5-10,10s4.5,10,10,10h156.8c5.5,0,10-4.5,10-10S348.4,205.2,342.8,205.2z"/>
<path class="st0" d="M342.8,287.9H186.1c-5.5,0-10,4.5-10,10s4.5,10,10,10h156.8c5.5,0,10-4.5,10-10S348.4,287.9,342.8,287.9z"/>
<path class="st0" d="M342.8,370.6H186.1c-5.5,0-10,4.5-10,10s4.5,10,10,10h156.8c5.5,0,10-4.5,10-10S348.4,370.6,342.8,370.6z"/>
<path class="st0" d="M122.5,330c-5.5,0-10,4.5-10,10c0,5.5,4.5,10,10,10c5.5,0,10-4.5,10-10v0C132.5,334.5,128,330,122.5,330z"/>
</svg>
