<?xml version="1.0" encoding="utf-8"?>
<!-- Generator: Adobe Illustrator 25.2.3, SVG Export Plug-In . SVG Version: 6.00 Build 0)  -->
<svg version="1.1" id="Layer_1" xmlns="http://www.w3.org/2000/svg" xmlns:xlink="http://www.w3.org/1999/xlink" x="0px" y="0px"
	 width="512px" height="512px" viewBox="0 0 512 512" style="enable-background:new 0 0 512 512;" xml:space="preserve">
<style type="text/css">
	.st0{fill:#BC8F00;}
</style>
<g>
	<path class="st0" d="M484.5,0h-31.8c-9.4,0-9.8,15,0,15h31.8c6.9,0,12.5,5.6,12.5,12.5v164.3c0,6.9-5.6,12.5-12.5,12.5h-22.8
		c-4.1,0-7.5,3.4-7.5,7.5v20.2l-25.5-25.5c-1.4-1.4-3.3-2.2-5.3-2.2h-146v-55.5c0-15.3-12.6-27.7-27.9-27.5V27.5
		c0-6.9,5.6-12.5,12.5-12.5H410c9.4,0,9.8-15,0-15H262.1c-15.2,0-27.5,12.3-27.5,27.5v93.8H27.5C12.3,121.3,0,133.7,0,148.8v164.3
		c0,15.2,12.3,27.5,27.5,27.5h15.3v30.8c0,6.5,8,10.1,12.8,5.3l36.1-36.1h59v105.5c0,15.2,12.3,27.5,27.5,27.5h158.3l36.1,36.1
		c4.8,4.8,12.8,1.2,12.8-5.3v-30.8h15.3c15.2,0,27.5-12.3,27.5-27.5V281.8c0-15.2-12.3-27.5-27.5-27.5H277.4v-35h142.9l36.1,36.1
		c4.8,4.8,12.8,1.2,12.8-5.3v-30.8h15.3c15.2,0,27.5-12.3,27.5-27.5V27.5C512,12.3,499.7,0,484.5,0L484.5,0z M150.7,281.9v4.4
		c-5.1,2.7-9.4,4.7-11.9,5.8c-4.9-2.1-15.8-7.3-27.8-15.2c-7.8-5.2-16.5,7.1-8.3,12.5c17.5,11.6,32.8,17.6,33.4,17.9
		c1.8,0.7,3.6,0.7,5.4,0c0.2-0.1,3.7-1.5,9.2-4.1v22.6H88.6c-2,0-3.9,0.8-5.3,2.2l-25.5,25.5v-20.2c0-4.1-3.4-7.5-7.5-7.5H27.5
		c-6.9,0-12.5-5.6-12.5-12.5V148.8c0-6.9,5.6-12.5,12.5-12.5h222.4c6.9,0,12.5,5.6,12.5,12.5v105.5h-50.3
		c9.6-13.8,14.5-28.5,14.5-43.7c0-27.9-22.4-50.7-50-50.7c-14.8,0-28.5,6.5-37.9,17.6c-9.4-11.1-23.1-17.6-37.9-17.6
		c-27.6,0-50,22.7-50,50.7c0,18,6.8,35.2,20.2,51.2c6,7.2,17.8-2.1,11.5-9.6C71.5,239,65.8,225,65.8,210.7c0-19.7,15.7-35.7,35-35.7
		c13.2,0,25.2,7.5,31.2,19.5c1.3,2.6,4,3.9,6.7,4.1c2.8,0,5.4-1.6,6.7-4.1c17.1-33.2,65.8-21,66.2,16.2c0,15.1-6.3,29.8-18.6,43.7
		h-14.9C163,254.4,150.7,266.7,150.7,281.9L150.7,281.9z M400.6,269.4c6.9,0,12.5,5.6,12.5,12.5v164.3c0,6.9-5.6,12.5-12.5,12.5
		h-22.8c-4.1,0-7.5,3.4-7.5,7.5v20.2l-25.5-25.5c-1.4-1.4-3.3-2.2-5.3-2.2H178.2c-6.9,0-12.5-5.6-12.5-12.5V281.9
		c0-6.9,5.6-12.5,12.5-12.5L400.6,269.4z"/>
	<path class="st0" d="M374.8,33.7c-2.8,0-5.3,1.5-6.6,4l-19.6,36.9c-1.6,3-3.3,5.5-6.6,7c-3.2-5.2-9-8.7-15.6-8.7h-12.6
		c-10.1,0-18.4,8.2-18.4,18.4v75.7c0,10.1,8.2,18.4,18.4,18.4h12.6c7.6,0,14.1-4.6,16.9-11.2c3.4,1.2,7.1,1.9,11.8,1.9h63.6
		c10.5,0,19.7-7.1,22.3-17.2l13.6-51.6c3.5-12.9-7.5-25.9-20.5-25.9h-29c-1.8,0-3.2-1.4-3.2-3.2V60.9
		C401.9,45.9,389.8,33.7,374.8,33.7L374.8,33.7z M329.7,166.9c0,1.9-1.5,3.4-3.4,3.4h-12.6c-1.9,0-3.4-1.5-3.4-3.4V91.2
		c0-1.9,1.5-3.4,3.4-3.4h12.6c1.9,0,3.4,1.5,3.4,3.4V166.9z M405.1,96.2h29c3.8,0,6.7,3.5,5.9,7.3L426.5,155c-0.9,3.6-4.2,6-7.8,6
		H355c-4,0-6.7-0.7-10.3-2.6V96.5c7.6-2.2,13.9-7.6,17.2-15.1l17-31.9c4.7,1.7,8,6.2,8,11.4v17.2C386.9,88.1,395.1,96.2,405.1,96.2
		L405.1,96.2z"/>
	<path class="st0" d="M224.7,392.7c14.7,0,26.6-11.9,26.6-26.6c-1.5-35.3-51.7-35.3-53.2,0C198.1,380.8,210.1,392.7,224.7,392.7z
		 M224.7,354.5c6.4,0,11.6,5.2,11.6,11.6c-0.6,15.4-22.5,15.4-23.2,0C213.1,359.7,218.3,354.5,224.7,354.5z"/>
	<path class="st0" d="M289.4,392.7c14.7,0,26.6-11.9,26.6-26.6c-1.5-35.3-51.7-35.3-53.2,0C262.8,380.8,274.7,392.7,289.4,392.7z
		 M289.4,354.5c6.4,0,11.6,5.2,11.6,11.6c-0.6,15.4-22.5,15.4-23.2,0C277.8,359.7,283,354.5,289.4,354.5z"/>
	<path class="st0" d="M354,392.7c14.7,0,26.6-11.9,26.6-26.6c-1.5-35.3-51.7-35.3-53.2,0C327.5,380.8,339.4,392.7,354,392.7z
		 M354,354.5c6.4,0,11.6,5.2,11.6,11.6c-0.6,15.4-22.5,15.4-23.2,0C342.5,359.7,347.7,354.5,354,354.5z"/>
</g>
</svg>
